/* XPM */
static char *Free_Converter_com_door_14003620[] = {
/* columns rows colors chars-per-pixel */
"128 128 41 1 ",
"  c #040404",
". c #0C0C0C",
"X c #140808",
"o c #180C0C",
"O c gray8",
"+ c gray11",
"@ c #201010",
"# c #281414",
"$ c #301818",
"% c #282C14",
"& c #38201C",
"* c gray14",
"= c #2C2C2C",
"- c #3C2420",
"; c #343434",
": c #3C3C3C",
"> c #442C24",
", c #4C3028",
"< c #543830",
"1 c #5C4034",
"2 c #644438",
"3 c #444444",
"4 c #4C4C4C",
"5 c gray33",
"6 c gray36",
"7 c #684C40",
"8 c #705444",
"9 c #785C4C",
"0 c #646464",
"q c #6C6C6C",
"w c gray47",
"e c #806450",
"r c #886C58",
"t c #907460",
"y c #947864",
"u c #9C806C",
"i c #A48878",
"p c #AC9080",
"a c #B49888",
"s c #D4B8AC",
"d c #DCC0B4",
/* pixels */
"$$$#$&>1<,<,,<1,,<<<<<<<<122211121211222222222227727727721,&&&$,o#$#&>1<,<,,<1,,<<<<<<<<122211121211222222222227727727721,&&&$&&",
"&#$$#-2re9999ee99eeee9e998999998889998887787787788727888887&--$>o#$&-2re9999ee99eeee9e998999998889998887787787788727888887-$&$&&",
"$$$##->1<<<,,>>>>,>->>>>>,------&&-&---->----->-&&--&&----,-&&&>X#&&->1<<<,,>>>>,>->>>>>,------&&-&---->----->-&&--&&----,-$&$$&",
"$$$#$&$--&-&$&&&&&-&-&--&&-&&-&----&---&&&&&&---&----&&->--&&&-,o#$$&$--&-&$&&&&&-&-&--&&-&&-&----&---&&&&&&---&----&&->----$$&&",
"$#$###@$$##$##$#@#####$###$###$$$$$$&$$#$$#$$&$$$$$#$$#$$$-&&&-,X#$$#@$$##$##$#@#####$###$###$$$$$$&$$#$$#$$&$$$$$#$$#$$$-&$$$&&",
"-$$##$-&>>>>>,,,->>>>>,>,>>>>>,>,,,,,>>-->>>>,,,,,>,,,,<,1,&&&&,o#$$$-&>>>>>,,,->>>>>,>,>>>>>,>,,,,,>>-->>>>,,,,,>,,,,<,1,$$&&$&",
"&####&<712222728779277772787722117212227272122222111221771--&&&<o#&&&<712222728779277772787722117212227272122222111221771-&&#$&&",
"$#####-<>-->&->-->>--->>->-&->>->>->>>>,,<>,,>,,,>,<,<<,,,-&$$-<o$$&#-<>-->&->-->>--->>->-&->>->>->>>>,,<>,,>,,,>,<,<<,,,-&$$$&&",
"$$#O##&-&&&&$&-$&&$&$$&&&&$&&&&&-&&&&&--&&&&&&&-&-->>--&->>&&&-<@&&&#&-&&&&$&-$&&$&$$&&&&$&&&&&-&&&&&--&&&&&&&-&-->>--&->>-$$$$&",
"$$$&$$>1<,<,,<1,,<<<<<<<<122211121211222222222227727727721<&&&-<X#$$$>1<,<,,<1,,<<<<<<<<122211121211222222222227727727721<&&$$&&",
"&$#$$-2re9999ee99eeee9e998999998889998887787787788727888887>&&-<o&&&-2re9999ee99eeee9e998999998889998887787787788727888887-&$$&&",
"$$O##&,1<<<,,>>>>,>->>>>>,------&&-&---->----->-&&--&&----,<,>-<o#$&&,1<<<,,>>>>,>->>>>>,------&&-&---->----->-&&--&&----,-$&$$-",
"&$#&#$&$$&&$&&&&&&$$$&-&&$$&$$$$&&&&&&&&&&$$&&&--&&&&&$&$->-->>2@#$&$&$$&&$&&&&&&$$$&-&&$$&$$$$&&&&&&&&&&$$&&&--&&&&&$&$->&&&#$-",
"&$##$&-->>->,,>>>,>>>>>>>>>>>>>,,>->>>>>>>,,,,,,,>>>><,,,,,--&>7@$&&$---->---,>>>-------&--&------>-&&&-&$&-&--&&&---&-&->&$$$$$",
"&$$&$$----&-->>-->>>>->------>&>-><,>>>->->>>,,>>,>>>,,>,,>&-&>2@$&&&>->,,>><<,,,>,,<>->>>-&&&--->>,,>>>>>,>>,>->>>>>-->--&&&$&&",
"&$&&&&&-&@o@XX@@@@#@oooo@oooo@@-&<>>#$$##$##$$$$##$$$&$##$---&-2@$--&-#@@@$$@#ooX@@#$$##$#$##&$-->&@@@#$$@#@@o#@#@$##&$&&$&&&$$&",
"$$#$$$><-$$$$$#$###@#$##$&$@Xo$&$>-<<-$$$-&&&&&$#$#&#&$&##--&&-1@$&&$&,&-$$&$$-$&-,>>$-&$$&>#o&-&-&1&>>>-&--$$$--->>>>--$X&$$#$&",
"$$$&$$,7--&>&>->&-&-$-----&#oX$$&-><>,->>>>>>>->--&,--$-$#---&-1@$&-&&2-,->->-,---,>1-,&>>>$$o--$&&<->&>&--,&>$,-,->->$-#X&&$$&&",
"&$#$$#>2->&>&-$>&>&>$>&-&>-&#X&&&-><->&->>-,&>&,-,-,->$&#@-&-&-2@$&&&$2>,->&>-<-,->-,-,-,>>&$o&&&&&<->&>$-&>&,$>&>&>$>$&$X&$$$&&",
"$$&$$#,2->$-&>&>&-&>$>->&,$$@X-&$&>,>>--->&,&,->&>->-,&&&@-&-&>2o$&&&&1->->&>-<-<>,-<->>,->-&@$&&-&<>>&>&>&>&>&>&,-,$>->$X-&&$$&",
"$$$#$$>2&>&-&-&>$-$-&>&>&-&$@X-&&&>,->->&,->-,->&,&>-<&,$#---&>1o$&-&&1&-&,--&<-<-<>1&,-<>&-$o&&&&&<->&-&>&-&>&-$>->->$&-X-&&&&&",
"$&-$&&>1->--$>$>$>#-&,--$>$$#X$&&&>,->->-,-,-,&>->-<-<$--@---&>1@$&-&&1,>-,-,><-<-1&<-,><->&$@&$&&&,->-,->&>&>&>--&,&-&>$X>&$&-&",
"&#&&&&>1&-&-&>$>$,#-&>->$--$@X&&&&>,->->&--<-<->->-,->&-$#---&,1o$-&&-<><&,->&>->-1>,&,&>->&&@&&&$&<>,->&>>-$,$>&,&>->-&#X-&-$&-",
"$##$@&,1&-&,->$>$-$>&>&<&>&&#X>&&&-<->&>->-,><-,&,-<-,->-#---&>1@&--&&1>,&<->-,->-<-,-1&,--&&@-&&-&<-,&>$,&>$,&,$-&,&>&-&X&&&&&-",
"&##$-&><&-&>->$-$>&>&-&,&>$&#o>&-&-<->&>-<>,->&>-,-,->&-$@>---,<@&&-&&1>,&1-,&,>,-<-,>>&<>>&$@-&--&<-<&-$>&,$>&-$,&,-,&>&X&&&&&&",
"&$$$-&,2-,&>&>&>$-&>->->$-&-@X-&$&-,--&,-,>,>,&>-<-<-,--#@----><@&--&-1>>-<->-,-<-1-<-,-,&,&$@--&&&<>,->&>$>&>&,&>-<>,--$X&&&&&-",
"&&$$&&,2&>->&>$-&>$,->-,&-&&#X-&&-><-,&,,<><,,-,><-,->-&$#-,>-><@&-&&-1-<&<-,-,-,-1-1,1><&>$$@---&$1-,->&>&,&>&>&-&<&,&-$X-&&&--",
"-&$$&-,2->&>&>$-&>&,&>->->&##X-&$&><&,&,><-<>>->-<-<-,$-$#->>->,o&--&-2-<>,-<>,&<-1>,&,->&>&$@&&--$<-<&>->$,&,&-&-->-,&-&X&&&&--",
">&&&->,7-<-,->$>&>$>&>->&>-&@X-->&-<->-<><-<-,-,>,-1-,&>$#>>>-><o&--->2><-,>1>,-,>,&<-<->&>&$@&-->$1,,&>&>$,&>&,&>-,&,->&X-&&$--",
"&&--&-,8><-,&>$>$>&>->&>->&&@X-&-&>,-,-<>,><-<->-<-<>,--$#,>>-,<@&--&>2,<-<><-<>1><->-<>,&-$$@&&&-$1>,->$>$-&>&,&,&<-,--$X&&&&--",
"-&&-&&>9><&>&>&>&>&>&>&<$>$&#X-&---,-<-<-<-,><-,>1-1-<-,&#->--,<@&--->2><-,,<><><>1-,-<-,&-$$@&&&-$<-,&>&>$>&,&,&,&,>,->&X--&&--",
"-&$&$&>9>,-,-,$>&>->->&,&-$&@X---&-<-,-,-<><-<>,->><>,->&$>>>-,<@&>>->7,<-1,<><-<><-1->-1&>&$@-&->&1>-&>$,$>&<&,&,-,-,->$X-&&$->",
"-&&&$&>8>,&>&,$>&>&>$>&----&oX-&---,-,-,-,><-,->><-,-,&--#>-->,,@&&---2,<><,<>,-1>1&,>1$1$,&$@----$<-,->&,&>-,&<&,-<-,&>&X&&&&--",
"-&$&&$>7><&>&,->&>&<&>-,&>->#X>----,-,-<>>><-<-,-<-<><->&#->>>,<#&----2<1>1><><,2,2><><&1->-$@-&->&1>,-,-,&<-,-,&,&<-,&-&X&&&&->",
"-&$&&->7><&>-,&>&>-,-,&>->--#X-&>--,-,-<-<><,,-,-1-,-<-,$#,>>><<@&&-->7,<><>1,<,1><,,><-<-,&$@-&->&<-,&,,,-<-1-,&>-,-,&>&X&-&&->",
"-&$&&->7-<-,->&>&>&,-,&>->--#X-&--><&,-<-<><->-<-1-<>,->$#<>->,<o&--->8,<>1>1>,-<>1>1><><-,&$@--->&1->-,&,$,&1&,&,-,-,&-&X&-&&->",
"-&$&$&>7><-,-,$-&>&>->>,->&>#X-&---<>,-<><><>,>,><-1-<---$,->>,<@&----7,<><>1>1-<><>,><&<-,&$@->>--<-,&>&,&>-<&,&>&,-,&>&X&>-&--",
"->&&&&,2><&,&<->&,&,&-&,->&-#o>&-&-<-,-<>1><&,-<><-<-<->-#,>>>,<#&>--&7,1,1><,<>1><><><&,&>&$#-->>&,>,&>->&<&,&>&,-<>,->&X&-&&>>",
"&>--&&,7><->-,->&>&,&>-,->->#X----><><,<-1,<->><-<-<-<-<>$,>,,<<@&-->-7<<>1,2,<>1>1>1,1><-,&$@--->-<-,-,>,&,-,&<-2-1-,-,-X&-&$>>",
"->$&&$,7><->-<-,->->&>-,->&-#o>>->><-<><>1,1>,&<-<>1><-<>#,>,,<<#---->8,1,<-1,1,8>1,1,2>,>,-$@--->-,-<-,-<->-,-<-1-,&,&>&X&-&->>",
"--&--&,7><>,&<->-,&>&>-<-,->$o>->->1>,><><><><&<><-2,<><>#,>>,<1#---->7,,,<,<,1>8>1>2,1,,-1-$#>->>-1-<>,><-1-<-<&<-<-<->$X--&->,",
"->--&-,7,1><><&>-,-,&,&<>,&-#o>->-><>,-<>1,<,<><-1-1,<-1>$,>,,,1@&>->>8<1,<>1<1>7,2<9>1->&<&$#>----1><>,-<&1-<-1-1-<-<$,&X>--&>>",
"----&&,7,1,1,<-<><-<><-1>,>>$@>---,1><-<,<<1><>1>2>2>2>2,$,,,,<<@->->,7,<,,17,2>2<2<8>1><&,&$#>>->,1><-<&1-1><-1>1-<-<--#X--&&>>",
">-&-&&,7>1>1>1><-,&,-,&<->,,&$>---,<-<-<>,>,-<><><>1,2,1>#<<,,1<#&>->,1<<->,1,<>1,1,2,2,2><>,&>>>>-<<,<1,11<1211122722272&->-&->",
">,---&<99988899999998988899e9<,---<99988899999998988899e9<,>,111$&,>,,<99988899999998988899e9<,--&<99988899999998988899e9<,&&&>>",
">,&&&>7rtree9eeeeeerrere9eeee82,->7rtree9eeeeeerrere9eeee82,,122$>>>>77rtree9eeeeeerrere9eeee82,>>7rtree9eeeeeerrere9eeee82-&->>",
"->&&&-,>>,><,<<,,,>>,,,,>>--&><<,,>>->,,<<<<<<12<<1<1111<<1,,,<1$>>><<121<,<<<111<<<,11<11<>>,<<,,---->,,,,,>,>>>->>>>>->,---&>>",
">,&>-&>,,>,<<1<<<,>>,,,,>>>-->>>>,>>>,,<<<<<<1221<<<1<1271,,,<<1$-,,,,1122<<1<21<<<<1<,,<,,>>>,>,,-->>,,,,,<<<,,<,,>,>>>,<---->,",
"-,&-&->>>>><,<<<<<<,<,<<,>>>>>>>>>>>>>,,<<<,<1111<<<<,1<<1<1<<11#->>><1<<1111127211211112211,,,>,<,<,,,<1127777<1<<<<<,<<<-->->>",
">>$$-->-,,<<<<11111111<<<,>>>&->>>>>>,<<111122122111<<11<1<>,111#>,,,<,11<<<<<11211111<<<>,,>>------->>>,,<<,<,>-->>>>,>>---&&>,",
">,&--&>-&&$&##$@#@#o@@#@$$#@@@->-->-#&$&-&&&&>,>&&----->-&,<<121#><>>,>&&#$####@@#@@####$&--$&-&-&&>-&&#$#$#$#@#$$$$&->>$$&&&->,",
"--->&$,7>-----&&&&&&&$&&-&&>#@-->>>2<,>>>,>--><,,,<122<,>@><<<11$>,>,<971<<<<,<>>>,>><<,1221-o----&72,>,,,>>,>>>>>,,<<<>&#----->",
",,&>-$>7->>>>>>>-->>>->,,>->$@---&>71>,>,,,,,,<<<1121<<,,#><<<11$>,>,,81<,,,,,,>,>>>>>>,,,,-&@---&&2<,>>>>>>,----->,,,>-$#--&&-,",
",>#&-&,8&>->>>-->--->>,,>>--$o&-&--2<,>>>>>>,,<<,,<<1,,,>$-<<<22$,<>,,82<,,,,,,>>>>>>>>,,,,-$@>>-&&2,,<--->>,>>->>>>,,>-&#&-&&>>",
">-&&&&>8&>,>>>>---->>>,>,,>--@---&&1<,>,>>><<,,,<,,11<<,,#><1127&,<<<,71<,<,,,,,>>,>,,,,,,,-&@>&-&&7,,,>->>,,>>>->,,,,>-&#----><",
">>&-&&>8>,>--------->>>,,,>&$o--&&>1,,,,>>,,<>,,,<1111<,,#>,1272$,<,,,7<1,<,,,>>->>>>,>,<<>-&@---&-2<,>>>->->>>,>>,,,>>-&@->&&->",
"><>->&>9&,>>------->>>,<>>>-&@-&-->1<,,,>>,,,,,,<<1111,,,$,<<112$>,,,>8<<<<<,,,,>>>,>,><<,->&@>---&7<,>>-->->,>,,>,,,,,>&#>>&&-,",
"><->-&,9&>------>-->>,<<>,>&$@&-,&-1,,>,>>,,>>,<<,<11<<,,#>:44:1$:505>7<<,,,,,,>-->>,,>><<>-$@,->-&1<,>>-->>,->>,>,,,,>-&#->&&-<",
">1>,--,8-,>>--->--->>>,<,,,-$@&&-->2,,,,,,>>>,,<1<1111<,,#,3++41$5=+w>811,,,,>,>>>>>><,,<,>>&#-----21,>>>>-->>>,,,<<<,,>&#->-&-,",
"-<>,>&,8$>>>>,-&--->>,<,,,>-$@--&->2<,>,,,>>,,,1<<<<11<,,$,3..42$5..0,81<<,,,,,,>>,>><,<<>,>&@-->&-21,>----&-,>,><1<1,,>&@->&--,",
">,>,>-,9&,>>,,>->>>->,<,,,>>$@--&--1<,>,>,>-,,,,<,11<111,#<:+ 42$5+ 4>8<<,,,,,,>>>,>,<,<<<<>&@>>>&-21,,-->>-->>,,<1<<,,>-#>>-&-,",
">>>>>-,9&,,>>->>><>>>,,<,,>-&o---->7,,,,,>>>,,,,<,12<<<,<#>3+.31$6+.3>8<1<,,>,,>,>>>><<<1<,>-@>,,-&2<>,>-->>>>>,<<111<,>&#>>-&>,",
"-,>>>-<e&,,>>,>--->>>,,,,,>-$@-----2<>,,,>>,>>,<,<<<<,<<,#>3+.42$0+O4>81<,,,>,,>>>>>,,<<<,,-&@->>-&2<>,-->>>>>>,><1<<<,>&#->-&><",
"-,>>>,2t-,,>>,,>>>>>>,<<,<,-$@-----7<>>,,>>>>,,,,,<,<,<,,@-3+.51$0+*5>81<,,,,,,>>>>><<<<<,,-&#>-,-&2<,>->,,-,>>,><1111<,&$->&-><",
"-,>->>19-,><,>>->>>>>,<,>,,-$@-----8<>>,,>->>>,,,,<,<<<,,#>3+.41$6++4-81<,,,,,>>>>-><,,1<,,-&#,>>&&2<,-,>,>->>>>,<<111<>-$->-->>",
"-,>->><8-<,<<<,>--->>><,,>>>$@-->>>2<,>,<,->,,>>,,,,<,,<>#,3*.32$4**3-71,,,>,,>>,->,<,<<1<<>>#>,>--2<,,<>,,>>->,,<<111,>-#->--,,",
"-,->->,7>,,,,,>>---->,,,><>-$@>>>>>7<,,,<,>>>,>,,,,<,,<<>@>4*O31$3+=5-71,,,><>,>>>>,,<,1<<<-&@>>---1,>>>>,,>>>->,<<11<<,>#&,-->,",
"><>>->,8>,,,,,>>>-->><,<>,,-$@->->-7<>>,,<,>>>->,,,<>,<,,#>6=+31$:+;6,821<,,,><,>,>>,<<<<<,-&@>>---1<,,>>>,>>>>>,<<<211,-#-,-&-<",
">,->>>,8&,>,,>>>>>>>>><<,<,-$o->>,-71,>,<<,>>>,>,,,,>,,,>@,0:=:2$4*;6>82<,,,,,,,>>>>>,,,<<<-&@>>---2<,<,>>>->,,>,<<121<>>#->-&><",
",,->,-,8>,>>,>,>>-->,-,,,<,-$@>-->>7<,>,,<,--,>,<<,,,,,,>#>6;*:2@5+*4,71<,,,,,<>>->>,,,<<,,-&@-->--1,,,<>,>-->,>,,11<<1<-$>>--,1",
"-,->,->9&,,,,>>>>>>,,>,<<<,>$#>>>>>8<>>,,<,>->,,,<,,,>,>,#-q:=:2$q*=4>82<,,,<,>,>>>,<,<1<<>-&@>,>>>2<,<,>,,->,>>,<1112<,-#>>--<1",
"-<-->->7-,,,,>,>,>>,,,<<<<,-$@>>-->e<,>,,<1,>,<,,,,<,>,,,#-50532$5053>71,,<,,,,>,,,,,,<<<<>&&@>,>>>2,<<<<,,>>->>,<<<<1<>>&--&-,1",
"-,&->->7>,,,>,,,,,,>,,<<1,,>-#>>->>9<,,,,<<>>,<,,>,<1<,,,@><1112$-,>,>82,>,,,,,>,,,,,,<<<,,--#>,>>>2,<1<<,,>>>->,<<<<<<>>$->-><1",
"-,&---<8>,<,<<,,>>,>,,<11<<>&$->><-91>,1<1<>-->,,>,<11,,>@-<2112#-<<,-82<,,,,,,>>,>,,,,<,,,-&#>,>--1,<11<<<>-->,,<<<1<1,-#>>>>12",
">,--,,<9&,<<<<<<,,>><,<<<1<>$#>->,-8<,,2<,<>>,,,>>,<<<,<,#-<1122#-<,>>81<,,,,,>>>>>,,,,<<,,>-#>>>->1,<11<1<>,>-,<<12722<-&,->&,7",
">,&->><e&,<11<<,,>>,,,<,,,,>&#>--,-9<>,<,,<>>,,,>>,,<1<,,$-<2112#-,>,>71<,<,>,,>,>,,,,<,,,,>&#>>>--2,<11<1<,<<><2227221,>$>,--,1",
">1&&->,e>,<11<<,,,>>,<<,,<,>&@>>->>9<,,<1,,>>>,,>,,<<<<,<#-<2122#>,>>,81,,,,>,,,>,,<,,<<,,,-&#>>>->2,<1<<1<<<,,,1122112,-$,>->-<",
",1>-&-<8>,<<,,<,-->>,,,>>,,,$@>,->>9>>>,,--,>,<,,<>><<<1,o,11212#>,>>,81>,,>>,,>,,,,,,<<<,,>$@,---,1,,<<<1<<<,<1<11<111<>#,,--><",
"><>>--<e,,,,,,,,>&->,,,,,>>-$$,>->,8<,,>,>>>,<,,<<<,,,,,>&,<1122#><>--92<,,<>,<<,>>,,,<,<<>--$>>>-,7<<<,,,<,<,,<,,<1<<1<,&->->,<",
",<->>,<99988899999998988899e92,->><99988899999998988899e92,,1<12#>,>->789988899999998988899e9,>->,<99988899999998988899e8>>->>>2",
"><-->,7rtree9eeeeeerrere9eeee81>><7rtree9eeeeeerrere9eeee871<1<2@-,>-,8rtree9eeeeeerrere9eeee8<-,,7rtree9eeeeeerrere9eeee7<>>--<",
"-,>-->>,,>>>->>>---->>>>>->---->>>&&>-->->>>>,,,>>,,,>>><>->1<22#&>>>>---->>->,>,>>>->>->>>>-->->-&-&--->--,>>>>>>,,>>>>>->,>>>2",
"-<>->,,,,,,>>>>>->>>,,>>><>>>>>>->>>>>,>,,>>,,,<1,,,,,>>,,>,1<27#-,-->,,>,,,>,,<1,><,,,,,>>>>>,>>>->>>>>>,>>,,,<,>,>>>->>>>,,,,1",
"-<>>>,,,<,<,,>,>>>>>,,,>,,>>>->>>>>>>,,,,,,>>,,<1<<,<,,,<<,><<22$>,---><,,,,,<<,<,,,<<,<,>>>>>>&-->&>>->>,>>>>,>>>>----->-&<,>>1",
"><>>-><>>>>>>,>,,,>>,--->---->>&->-&->-->>>>>>,--->-,>-->>-,<<22#>,,>>&-,>>>>>>->>,>>>->>>>>---&--,,>>>>>->>>>----->>>>,>--<>->1",
"-1>->><1---&$$$$$$&&&&&&&---$$>--->,#@#@@@#@#@####$$$&&-&#>,<1<1#&>>>>2>&&$#$##$####$$$&&->-#----&,7$#@@@@@@@o@o@@##@$-&@X-,>->1",
">1,>-,19<1<>>->-->>>,<<<<<1<$@-&-->2<&&->&----->->>,,<<,,#-,11<1#-,,>,82<<,,,>,>>>>-,,,,<,<&$$>>>&>2,,,,,>>>>>>>->,<<<,,-#-,,,>2",
"&1,>-,<9<<>>>>,>>>,<,,<,<1,>$@-&&>,71>>>>>>,,,,,>,<<11<<>#-,1<12#><>>-22<1,>>,,>,->>><,,,<,<&#>--&>7<,,>>>,>>-->>-,><<>,-#-<,>,2",
"-1,--><8,<,,>>,>>,<,<,,<<,,-&@--->,21,>>>>,,,,>>>,<<1<<,>$>,<<12#>,>,>2211,>>>>>>>>-><<,<<<<&#>>-->7<,,>,,>---->>>>-<2,>-#-<<,17",
"&1>---<8<<,>-,>>>,>,,,<,<,>-&#--->>2<<,>>>,,,,>,>,<,<<,>>$-><<<2#&,<,>22<<,>,>>>>-->>,,<<<,,&@,,-&>2,,->>>>,<,->>->,<<,-&#>11,<7",
"-1>->-,8<,>>->>>>>,,>,<,>,>-&@---,>7,<,>->,<,,,-,>,>11,>>$>,1<11$&<,,,721,,,>>>>>>>>,,<<<,,,&#,>->>7,,>->>>>>>>>->><<,,>-#>11,,2",
"-2,-->,8<<,,>>>-->>,,>,<,,>-$@>----8<>,>->,,,,>-,>,>,<,,>$-,1<17#&,,,>721,>,22,>,>,,>,<,,<<,&#,>>,>1<,<>>>>->>>-->,,,1,>&#-<<,,7",
"&2,&->,8,,,,>-->>>>>,,,,,,>-$@-----7,,>>->>>>>-->>,71<,--#--<112$&,>>-22<<,,,<>>>>,,-,<,,,,,&@>>>>>2,,,>,>>--->-->>,<<>>-#-,<,<7",
"&2,-->,e,,,>->->--,>>>,>>>--$#-->>-71<,--,->,>-->>,<<<,>>$->1,<1#-,>>>21<,,,>->>>>>>>,<>,,,,&@>>-->2<,,>,>>>>->>>>>><1>>-#><<,,2",
"&1,>-,,9,,,>-->>>>->,>>>>>-&$#-->,-2,,>->,->>>->->,,,,,>>$-,2,<1#-,,>>22<>>>>>>,>>>>,,<,,,,,&@>>>--2<,>>,>>,>,,,,>,,<1,,&@>1,<,1",
"&2,->>,8,,,>,>>>->>->>,>>,--$@>->,>7<>--><>>>,>>,,,,,,,,>$-,7112#&,,>,21<,,,>>>>>>>,,><1,<<,&#,>-->1,,>>,<,,,,,>>>,,1<,,&#>11<,2",
"&2,&->>7>,,>>>>-->>>>->>>>--#o,>-,-7<>->>,>>>>,->,,,,,,>>#-,1<11@&<,>>22<>>>>>,>->>>>,,>,,>>$@,>-&>2,<>><>,,>>>>>>>>,1,>&@>221<2",
"&2<&-,,7,,,>>->->--->>>,>->-#o,>->-7,>>>-,>><,>>>,,,<<,>>#-,21<1@&,,>>22<,>,,>>,->>>,,<,,,,-&#>>>-,12<<<<,,<<,,,,>,><2,<&#,11<,2",
"&71--,,9,,,,,------->,>->>-&#o>-->-8>&>>-<,,1,>>>,,,<,>>>$-,1<11#$,,<>12<,>,<<>>>>>-,><,,,,-&@>>>>,21,,,1<<<,,>,,>,,12,<-@>1<<,1",
"&7<>>,<8>,<,>>,>>>>>>>>->>-&$@>>&,,7,>->->,<<<>->,,,,,>>>$>,1<11@-,>,>21<,,,><<,>>>->,<,,<,-&@,>->,1,>>,21,,,,,,>>,,12<1-@>1<,,2",
"&2<>>,<8,,,,->,,>>>>>-,>->--#@>--<>2,-->--><<,,,>,,,<,,>>#><1121@-,>>>72<>>,>>,><<,->,<<,,,-&@>>->,2<,<<<1<,,>,<>>,,11<<&#>1<<<2",
"&2<,>,<8,,>--,>>>>-->-,>---&#o,--<>2,--,>,,,1>>,,<<<,,,>>$,<111<@>,,,-71,>>,>>>>>,1<><<,,<,-&@<>>>,7<>,111<,,<,,>>,,12<,&#<1<<<7",
"&21,<,18>>>,>>>>>->>->>>>>-&#@,>-<,7>>-,,,>,1<,,,,,<<,,,>$>11<1<@-<<,>21<,><,,,,>>,<,<<>><,>&#<-->,7<><1121,,<<,,,<<2112-#,1<,<2",
"&21,<,<2->-,>,,,,>>>-->>--&$#o,>-,>7>->,,>,<1<><,11,<,,,>#><1121#>,<,>2<,,><1<71,,>,,<,>>,,-&@,>->,2<><<111,,<<,,,<<<1<1-#,1<,,1",
"&7<,<,<7>>>,><>>,,>>>&>----&$@<,-,,7>--,>,,<21,<,<1<<,,<>#,1<22<#-,,>,2<,-><<<1<<,,,,,<,>,>-&@<,->,1,,<<121,,,,,>><<12,<-#,<<<,1",
"&2<<<,,7>>>,>,,,>->,,>>>---&#@,,>,<7>--,,,<12<<,,11<1<<>-$,21<21#-<,,,1<<>><<1<,,,,>><,>,<,-&#<>->,2,>,,171<<,>>,,<<72,,>@,1<,,2",
"$71,<>,7,>,<,,><,->,,>>->--&#o,,-,,1>--<,>,,2<,<,1711,,,>#<71111@-<,<17<<>,1<11<<,>>><,->1<>$#1>-,,2<,>,282,<><<<,,172,<-#<2<,,7",
"$21<<<<2->,,,>>,>-->,->->>-&$o,,>,<7,>>,<>,<2<,>,121211,>$<72111#&,,<<7<,><2111<<,,,,<,><,,-$#1,>>,2>,>,171,<,<<,>,<171,-@<1<><7",
"$71<,,,7>,,,>>,,>>->>>>,>>-&$o,,-,<2>->,>-,<2<,,,1212<,,>#<71111#-,,,17<<>121111<<,,,,,><,,-$@1,->,2<,><22<,,<,,<,<<1211-#<1<,,7",
"$711>,,7>,,,--<,>->>>>>>>>-&$o<,&,,2>->,>-,<2<,,,<1121,>>#,7111<@><,<171<,1<1111<,,<,<,>><,-$@1<>>,2,><122<,<<,,<,<<2211&$1<,,,7",
"$72<,<,8>,,>>>,>-->>>&--->-&#o<,>><7>->,>,,111<,>,2<1<,>-#,21222#-<<,<71,><721211,,,<<<,>,>-$#1,>>,1,,,<221111<<<<<<2711>$<1<,,7",
"$71<<,,8,<,>>>--->>>>>>>-,>-$@1,>,<2>>,<,1<221>>>>,<221<,#,72111#>1<<<7<,,<21111<,,,,<<<,,,-&o1<>><1,>,,11<<<,1<<<<11272>@<,<,<7",
"$7<<<>18>,,,>>>--,->,>,,>,,,$@2<>,,1>>-,>1<,>>-,,>>,12<,<$>11112#><,,1811<,11<<111<<,<<<<,>>-@<,>>,1,<,,<<<<1,,<1<111<<1,&><<>,8",
"#8<,,,<99988899999998988899e971,-<<99988899999998988899e9<,,2111#><,,<899988899999998988899e981<1,17e988899999998988899e92,,<><2",
"%71,<,7rtree9eeeeeerrere9eeee87>><7rtree9eeeeeerrere9eeee8221121#>1,,<etytrrerrrrrrttrtrrrrrre82229ttrererrrrrrttrtrerrrrr7<<,<2",
"&71,,>272111<<1<,<,<,<1<<1,,,<<>,,<1,<<<<<<<1<<<<,,,,,>,<<,<1121@><>,,12272778878722277721277788988717712721122788877782221,1,,1",
"$82,,,->--&--->-----&----------->,--->->>>,>,,-1,->>>>,>,>&<2122#><,1127277788999887282227789882898777722877228788887892882,<,<2",
"#72<<,><,,>,,>,,,>>>>>->>>>->>---<->1<>,>>->>>-1<--,--<,,>>,2112#><,2<12778889eeee9899887789ee779e98788779797189e9e98887882><>>1",
"$711<,,,<<<1<,<<<<,<<,<,>,,,<,,<<11<<211<11<<111<<<<<,<1,,>,1112@-,<<<<777877787277722122<<<1,,,,,,<,,,>><<,,,><,>,>>>-->>,,,,,2",
"#2<>,<<>&-&&&&-$->&&-&&&&$$&$&&&&&&&&&&$$$&&&$$$&&$$&&&&&$&,<<<<#>,>>,<-#$$$$$&$&&&&-&&&&$&$$&&$$$&&$&$$&->&&&&&&$$&&$&&&$,<1<<1",
"$2<,,,<1&&&$&&&#&-$&$$$$&&$$&&$$$&&$&&&$$&&&&&&------>>,>&,1<,11$,,>->7<1<,<<<<,<1<<111<<1<,,<11<<<<<1<<1111<11<11111<12,,,<1<<2",
"#2<->,17,,,,<,,<<<<,,,,,,,,,,,,,<,,,,,,,,,<,<<,<<11<21271><<<e,1#,-18>8,>,,,<,,<<<<,,,,,,,,,,,,,<,,,,,,,,,<,<<,<<11<21271><<1<<2",
"$1<-,<1897227787222897898898888999e99reeerreeeerrtrrrtyuye<>eda<$>-as99271127787222897898898888999e99reeerreeeerrtrrrtyuye<,1<<2",
"$1,-,,2ryyyuiuiiippaapaappipiiuiiuipipuiuuuuiiuuiiiiiiiuuue>2u8,&-&7t19ryyyuiuiiippaapaappipiiuiiuipipuiuuuuiiuuiiiiiiiuuue,<,<2",
"$1<-,,78778878877777787778277777777727772222272222277277228<&-&<$>>-->12778878877777787778277777777727772222272222277277222><<,1",
"&<,-,>,<<11<<<<<<,,,<<<,<,,<<<1<<<<,,<<,<<<1<<1<<<<<<<11<<<,>--2$,1>&>,<<11<<<<<<,,,<<<,<,,<<<1<<<<,,<<,<<<1<<1<<<<<<<11<<<,<<,2",
"&>>->>,7722222211122112111111111222122211112112<111112<2112<,,>2&><<>,<211771<21<11<1<<<<1<11711<22<1<12122111<221222787772,,,>2",
"$,>>>>,111211111<<11<1<<<11<1211111111111<1<<1<<121111<111<,<,<7$>1<,,2212211<1<1112222221122222271227772222111<1111221<<,>,>>>1"
};
